<svg width="65" height="14" viewBox="0 0 65 14" fill="none" xmlns="http://www.w3.org/2000/svg">
<path d="M55.7382 2.507C56.0377 2.74476 56.2329 2.65298 56.6026 2.35228C57.1593 1.89948 57.3977 1.72203 57.6666 1.46066C58.0471 1.09003 58.0354 0.68181 57.8096 0.462402C57.7215 0.375863 57.3851 0.194043 57.0847 0.0436916C56.9875 -0.00525985 56.894 0.00173289 56.8265 0.0952652C56.7672 0.177434 55.6959 1.70192 55.4675 2.05857C55.4243 2.12588 55.3874 2.2063 55.516 2.31994C55.516 2.31906 55.6617 2.44668 55.7382 2.507Z" fill="white"/>
<path d="M63.8316 3.52547C63.8316 3.52547 56.6387 3.52547 55.6448 3.52547C55.3417 3.52547 55.3714 3.74226 55.4281 3.83579L56.5929 5.69682C56.5929 5.69682 56.6738 5.82444 56.8537 5.82444L58.3342 5.82532L56.744 13.8175C56.7269 13.9023 56.7925 13.9792 56.8843 13.9792H58.5356C59.1796 13.9792 59.7355 13.5326 59.8587 12.9154L61.2664 5.82444H63.255C63.3513 5.82444 63.4547 5.7685 63.4916 5.68808C63.6166 5.41622 64.0942 4.36289 64.1958 4.09891C64.2309 4.00712 64.2399 3.91971 64.2399 3.84803C64.2381 3.63649 64.0591 3.52547 63.8316 3.52547Z" fill="white"/>
<path d="M45.7917 3.52525C45.7917 3.52525 38.1887 3.52525 37.1948 3.52525C36.9457 3.52525 36.9412 3.74553 37.0167 3.83556L38.4262 5.69659C38.4262 5.69659 38.5224 5.82422 38.7023 5.82422L40.2943 5.82509L38.7041 13.8173C38.687 13.9021 38.7527 13.979 38.8444 13.979H40.4958C41.1398 13.979 41.6956 13.5323 41.8189 12.9152L43.2265 5.82422H44.6206C44.8815 5.82422 44.9669 5.68785 44.9669 5.68785L46.1776 4.09868C46.1776 4.09868 46.2972 3.95532 46.2387 3.75864C46.1803 3.59692 46.0552 3.52525 45.7917 3.52525Z" fill="white"/>
<path d="M54.6873 4.72559C54.1134 4.01929 53.0251 3.55513 51.5761 3.50705C51.1336 3.49219 50.7145 3.50355 50.4446 3.50705C48.9506 3.52628 47.8102 3.97995 47.0735 4.62769C46.3369 5.27455 45.7729 6.46599 45.3817 8.21688L45.1568 9.24661C44.7808 10.9826 44.887 12.2012 45.4608 12.9075C46.0499 13.5989 46.9836 13.9084 48.6331 13.9687C48.9165 13.9792 49.3986 13.9827 49.7646 13.9687C51.3782 13.9075 52.3883 13.6234 53.1259 12.9765C53.8625 12.3288 54.4327 11.1452 54.8096 9.39521L55.0345 8.36548C55.4086 6.62858 55.2764 5.41703 54.6873 4.72559ZM53.5882 6.61722C53.4622 6.78505 50.6794 10.4503 49.5191 11.6968C49.2601 11.9826 48.9012 12.1374 48.5288 12.1374H48.4721C48.0683 12.119 47.6959 11.9145 47.4378 11.5849C47.1787 11.2501 46.8136 10.661 46.5734 10.2702L46.4979 10.1522C46.2262 9.71777 46.3782 9.21514 46.6679 8.99224C46.9584 8.76234 47.4504 8.6758 47.8794 9.15308C47.8794 9.15919 48.2959 9.60588 48.491 9.77284C48.5288 9.81043 48.554 9.81655 48.554 9.81655C48.554 9.81655 48.5729 9.80431 48.6044 9.77284L52.3775 5.68539C52.7319 5.33049 53.2167 5.25706 53.545 5.54291C53.8346 5.79291 53.8832 6.22298 53.5882 6.61722Z" fill="white"/>
<path d="M54.5022 2.09014C54.263 2.2536 53.8591 2.47388 53.6352 2.56567C53.4949 2.62336 53.3725 2.64434 53.2493 2.64434C53.1315 2.64434 52.9813 2.59713 52.7978 2.50972C52.4686 2.35325 51.9676 2.12336 51.9676 2.12336C51.741 1.99748 51.4684 1.97475 51.2238 2.06216L49.6839 2.56042C49.4807 2.63035 49.2567 2.64871 49.0498 2.58053C48.7962 2.49749 48.0361 2.06916 48.0047 2.04468C47.9381 1.99224 47.8976 1.93716 47.8958 1.86024C47.8931 1.76146 47.9534 1.69241 48.1009 1.61461L50.8352 0.178408C51.0457 0.0630223 51.2903 8.39233e-05 51.5431 8.39233e-05H52.277C52.4929 8.39233e-05 52.5639 0.0123226 52.7708 0.175786C53.2142 0.526313 54.4537 1.61548 54.4537 1.61548C54.5859 1.723 54.6551 1.80954 54.6551 1.88909C54.6533 1.95814 54.6345 1.99923 54.5022 2.09014Z" fill="white"/>
<path d="M33.2048 2.57344C33.2686 2.62326 33.3469 2.66784 33.4773 2.55683C33.4773 2.55683 33.6248 2.43095 33.6959 2.36452C33.9747 2.10403 33.9027 1.90473 33.6401 1.51224C33.2434 0.921325 33.0905 0.670447 32.8549 0.380235C32.5212 -0.0306077 32.1021 -0.0681948 31.8511 0.124115C31.7522 0.19929 31.5273 0.502615 31.3375 0.77447C31.2764 0.862758 31.2719 0.953666 31.3591 1.02972C31.4365 1.09615 32.8675 2.31032 33.2048 2.57344Z" fill="white"/>
<path d="M26.0866 3.50001H23.7606C23.6167 3.50001 23.4926 3.59966 23.4656 3.73689L22.7856 7.17311C22.7667 7.27014 22.6786 7.34095 22.5769 7.34095L19.6241 7.34007C19.4873 7.34007 19.3848 7.21857 19.41 7.08832L20.0549 3.84266C20.09 3.66434 19.9497 3.49913 19.7635 3.49913H17.4492C17.2972 3.49913 17.1668 3.60403 17.138 3.74913L15.1835 13.6277C15.1475 13.8104 15.2914 13.98 15.483 13.98H17.7901C17.9403 13.98 18.0698 13.876 18.0986 13.7326L18.7777 10.2999C18.7957 10.2072 18.8793 10.1399 18.9765 10.1399H21.9266C22.0661 10.1399 22.1713 10.2632 22.1452 10.3969L21.512 13.6198C21.4751 13.8069 21.6226 13.9809 21.8187 13.9809H24.1078C24.2625 13.9809 24.3956 13.8742 24.4253 13.7256L26.3798 3.84616C26.4167 3.66609 26.2745 3.50001 26.0866 3.50001Z" fill="white"/>
<path d="M15.9299 3.49704H13.6192C13.4708 3.49704 13.3431 3.59931 13.3152 3.74092L12.2871 8.94377C12.2503 9.13258 11.9894 9.17104 11.8959 9.00146L9.72012 5.06261L9.16067 4.04687C8.97448 3.70858 8.61111 3.49704 8.21625 3.49704H0.23999C0.23999 3.49704 5.53051 4.59233 5.43337 6.38692L3.99786 13.6081C3.96009 13.8004 4.11119 13.9788 4.31267 13.9788H6.61524C6.76005 13.9788 6.88418 13.8791 6.91116 13.741L7.92933 8.59061C7.9707 8.38344 8.25673 8.34324 8.35746 8.52943L10.9281 13.3214C11.1448 13.7253 11.5748 13.9788 12.0434 13.9788H12.5543H13.9646C14.1166 13.9788 14.247 13.8739 14.2758 13.7288L16.233 3.85456C16.269 3.66837 16.1233 3.49704 15.9299 3.49704Z" fill="white"/>
<path d="M37.1753 12.6995L36.6509 11.1899L34.5795 5.22831C34.5246 5.08146 34.4725 4.97306 34.4248 4.86729C34.065 4.06047 33.2789 3.5255 32.3165 3.5255C31.5304 3.5255 30.8846 3.89875 30.4601 4.47656C30.3647 4.60593 30.2937 4.69334 30.1686 4.89789C28.7088 7.39441 25.7011 12.5343 24.9896 13.7424C24.9222 13.856 25.0076 13.9985 25.1425 13.9985H27.4712C27.8876 13.9985 28.2717 13.7817 28.4777 13.4303L31.6707 7.9862L31.9603 7.49319C32.0494 7.34109 32.2814 7.36295 32.339 7.52903L32.5261 8.06662L33.5164 10.918C33.564 11.0544 33.4597 11.1951 33.3122 11.1951L31.6887 11.1969C31.0168 11.2187 30.7029 11.3892 30.4421 11.9216L29.3735 13.835C29.3304 13.9356 29.4023 14.0002 29.4914 13.9994L34.5849 13.9932L34.5867 13.9994L36.2255 13.9941C36.9118 13.9897 37.3957 13.3324 37.1753 12.6995Z" fill="white"/>
</svg>
