<svg width="20" height="20" viewBox="0 0 20 20" fill="none" xmlns="http://www.w3.org/2000/svg">
<path fill-rule="evenodd" clip-rule="evenodd" d="M4.73249 18.3337V15.3809C2.81941 13.9785 1.68249 11.7538 1.66675 9.38181C1.66675 5.1281 5.37045 1.66699 9.91678 1.66699C14.4631 1.66699 18.1668 5.1281 18.1677 9.38181C18.1686 13.6355 14.464 17.0948 9.9177 17.0948C9.11678 17.0959 8.31955 16.9871 7.54823 16.7716L4.73434 18.3337H4.73249Z" fill="#589F39"/>
<path fill-rule="evenodd" clip-rule="evenodd" d="M5.53955 11.7406C6.6276 11.7406 7.27132 11.2194 7.27132 10.3991V10.3962C7.27132 9.73828 6.86686 9.38509 5.99528 9.21704L5.57373 9.13729C5.13224 9.05469 4.93856 8.93791 4.93856 8.71574V8.71289C4.93856 8.47648 5.15503 8.30273 5.53955 8.30273C5.91553 8.30273 6.18042 8.47078 6.21175 8.74137L6.2146 8.77271H7.18587L7.18302 8.71289C7.146 7.96663 6.56209 7.48242 5.53101 7.48242C4.58822 7.48242 3.90177 7.99227 3.90177 8.7841V8.78695C3.90177 9.41642 4.33187 9.81803 5.14648 9.96899L5.56803 10.0487C6.0494 10.1427 6.23169 10.251 6.23169 10.4845V10.4874C6.23169 10.7437 5.97534 10.9203 5.55949 10.9203C5.15788 10.9203 4.85026 10.7466 4.79899 10.4817L4.79329 10.4504H3.82202L3.82487 10.5016C3.87044 11.2878 4.51701 11.7406 5.53955 11.7406ZM8.67269 11.6666V9.09741H8.69548L9.70093 11.6666H10.2991L11.3045 9.09741H11.3273V11.6666H12.2473V7.55648H11.0396L10.0085 10.2424H9.99146L8.96037 7.55648H7.75269V11.6666H8.67269ZM16.1837 10.3991C16.1837 11.2194 15.54 11.7406 14.4519 11.7406C13.4294 11.7406 12.7828 11.2878 12.7372 10.5016L12.7344 10.4504H13.7056L13.7113 10.4817C13.7626 10.7466 14.0702 10.9203 14.4718 10.9203C14.8877 10.9203 15.144 10.7437 15.144 10.4874V10.4845C15.144 10.251 14.9618 10.1427 14.4804 10.0487L14.0588 9.96899C13.2442 9.81803 12.8141 9.41642 12.8141 8.78695V8.7841C12.8141 7.99227 13.5006 7.48242 14.4434 7.48242C15.4744 7.48242 16.0584 7.96663 16.0954 8.71289L16.0982 8.77271H15.127L15.1241 8.74137C15.0928 8.47078 14.8279 8.30273 14.4519 8.30273C14.0674 8.30273 13.8509 8.47648 13.8509 8.71289V8.71574C13.8509 8.93791 14.0446 9.05469 14.4861 9.13729L14.9076 9.21704C15.7792 9.38509 16.1837 9.73828 16.1837 10.3962V10.3991Z" fill="white"/>
</svg>
