<svg width="20" height="18" viewBox="0 0 20 18" fill="none" xmlns="http://www.w3.org/2000/svg">
<path d="M1.25 17.1249C1.20234 17.1249 1.15422 17.1194 1.10656 17.1085C0.824531 17.0413 0.625 16.7898 0.625 16.4999C0.625 10.8205 1.34344 6.09711 10 5.88226V1.49992C10 1.25148 10.147 1.02695 10.3742 0.927419C10.6006 0.828513 10.8661 0.871325 11.0492 1.04101L19.1742 8.54101C19.3023 8.65867 19.375 8.82539 19.375 8.99992C19.375 9.17445 19.3023 9.34117 19.1742 9.45898L11.0492 16.959C10.8667 17.1287 10.6012 17.1726 10.3742 17.0726C10.147 16.9729 10 16.7484 10 16.4999V12.1323C4.06187 12.2744 2.96625 14.4651 1.80906 16.7794C1.70172 16.9949 1.4825 17.1249 1.25 17.1249ZM10.625 10.8749C10.9705 10.8749 11.25 11.1544 11.25 11.4999V15.0723L17.8284 8.99992L11.25 2.92757V6.49992C11.25 6.84539 10.9705 7.12492 10.625 7.12492C3.72062 7.12492 2.23391 9.79523 1.94156 14.0604C3.23609 12.3215 5.4425 10.8749 10.625 10.8749Z" fill="#777777"/>
</svg>
