<svg width="23" height="28" viewBox="0 0 23 28" fill="none" xmlns="http://www.w3.org/2000/svg">
<path fill-rule="evenodd" clip-rule="evenodd" d="M0 5.43223C0 4.75248 0.418632 4.14668 1.05307 3.90267L11.2 0L21.3469 3.90267C21.9814 4.14668 22.4 4.75249 22.4 5.43223C22.4 7.74393 22.4 13.0337 22.4 15.6732C22.4 16.4687 22.0722 17.9215 21.6559 18.5995C18.2623 24.1262 11.2 28 11.2 28C11.2 28 2.95317 23.1081 0.120706 17.4781C0.0388643 17.3155 0 17.1422 0 16.9601C0 15.4715 0 8.24591 0 5.43223Z" fill="url(#paint0_linear_679_31299)"/>
<path fill-rule="evenodd" clip-rule="evenodd" d="M9.76299 19.6021L4.27832 14.0919L6.10654 12.2559L9.57973 15.7461L16.5283 8.4021L18.5376 10.2381L9.76299 19.6021Z" fill="white"/>
<defs>
<linearGradient id="paint0_linear_679_31299" x1="27.8447" y1="17.5375" x2="16.8129" y2="-2.58254" gradientUnits="userSpaceOnUse">
<stop stop-color="#E64B00"/>
<stop offset="0.461129" stop-color="#FF7300" stop-opacity="0.9"/>
<stop offset="0.749235" stop-color="#FE9900"/>
<stop offset="1" stop-color="#FEA215"/>
</linearGradient>
</defs>
</svg>
