<svg width="17" height="18" viewBox="0 0 17 18" fill="none" xmlns="http://www.w3.org/2000/svg">
<path d="M16.1187 9.95127C16.1187 9.23392 16.0875 8.58934 16.0251 8.01754C15.9108 7.01949 15.6275 6.08642 15.1752 5.21832C14.723 4.35023 14.1538 3.60689 13.4676 2.9883C12.7815 2.36972 11.981 1.88369 11.0661 1.53021C10.1512 1.17674 9.18954 1 8.18109 1C6.77758 1 5.48324 1.33268 4.29805 1.99805C3.11287 2.66342 2.1564 3.5809 1.42865 4.75049C0.70091 5.92008 0.30065 7.21702 0.227875 8.64133C0.207082 9.15075 0.191488 9.54061 0.181091 9.81092V10.0448C0.181091 10.076 0.178492 10.1072 0.173294 10.1384L0.1577 10.232L0.149902 10.3255V13.6784C0.149902 14.0422 0.279857 14.3541 0.539766 14.614C0.799675 14.8739 1.11157 15.0039 1.47544 15.0039H2.81657C3.19084 15.0039 3.50533 14.8739 3.76004 14.614C4.01475 14.3541 4.14211 14.0422 4.14211 13.6784V10.3255C4.14211 10.0864 4.08493 9.8655 3.97057 9.66277C3.85621 9.46004 3.69766 9.2989 3.49493 9.17934C3.2922 9.05978 3.06608 9 2.81657 9H1.47544C1.38187 9 1.2935 9.0104 1.21033 9.03119V8.91423L1.21813 8.82066L1.22593 8.74269V8.7037C1.2883 7.44574 1.63658 6.30474 2.27076 5.2807C2.90494 4.25666 3.74185 3.45354 4.78148 2.87135C5.82112 2.28915 6.95432 1.99805 8.18109 1.99805C9.96927 1.99805 11.5079 2.57765 12.7971 3.73684C14.0862 4.89604 14.8296 6.35932 15.0271 8.12671C15.0375 8.19948 15.0479 8.31904 15.0583 8.48538C15.0687 8.65172 15.0791 8.83366 15.0895 9.03119C14.9855 9.0104 14.8867 9 14.7932 9H13.4676C13.0934 9 12.7789 9.12996 12.5242 9.38986C12.2695 9.64977 12.1421 9.96166 12.1421 10.3255V13.6628C12.1421 13.9019 12.2045 14.1254 12.3292 14.3333C12.454 14.5413 12.6255 14.7024 12.8439 14.8168L9.63138 16.0799V16.0019C9.63138 15.9084 9.61059 15.8226 9.56901 15.7446C9.52742 15.6667 9.46764 15.6069 9.38967 15.5653C9.3117 15.5237 9.22593 15.5029 9.13236 15.5029H7.63528C7.50013 15.5029 7.38317 15.5497 7.28441 15.6433C7.18564 15.7368 7.13626 15.8564 7.13626 16.0019V16.501C7.13626 16.6361 7.18564 16.7531 7.28441 16.8519C7.38317 16.9506 7.50013 17 7.63528 17H9.14795L10.0368 16.9844L15.183 14.9727L15.2454 14.9415L15.3 14.9025L15.3546 14.848C15.5833 14.744 15.7678 14.5854 15.9082 14.3723C16.0485 14.1592 16.1187 13.9227 16.1187 13.6628V10.3255C16.1187 10.2528 16.1083 10.1748 16.0875 10.0916C16.1083 10.0396 16.1187 9.99285 16.1187 9.95127ZM1.47544 9.99805H2.81657C2.86855 9.99805 2.91274 10.0058 2.94912 10.0214C2.98551 10.037 3.0193 10.0604 3.05049 10.0916C3.08168 10.1228 3.10507 10.1592 3.12066 10.2008C3.13626 10.2424 3.14405 10.284 3.14405 10.3255V13.6784C3.14405 13.7615 3.11287 13.8369 3.05049 13.9045C2.98811 13.9721 2.91014 14.0058 2.81657 14.0058H1.47544C1.38187 14.0058 1.3039 13.9721 1.24152 13.9045C1.17914 13.8369 1.14795 13.7615 1.14795 13.6784V10.3255C1.14795 10.284 1.15575 10.2424 1.17134 10.2008C1.18694 10.1592 1.21033 10.1228 1.24152 10.0916C1.27271 10.0604 1.3091 10.037 1.35068 10.0214C1.39227 10.0058 1.43385 9.99805 1.47544 9.99805ZM13.1402 10.3255C13.1402 10.2943 13.1454 10.2606 13.1558 10.2242C13.1661 10.1878 13.1817 10.1566 13.2025 10.1306C13.2233 10.1046 13.2467 10.0812 13.2727 10.0604C13.2987 10.0396 13.3273 10.024 13.3585 10.0136C13.3897 10.0032 13.4261 9.99805 13.4676 9.99805H14.7932C14.8556 9.99805 14.9101 10.0136 14.9569 10.0448C15.0037 10.076 15.0427 10.115 15.0739 10.1618C15.1051 10.2086 15.1207 10.2632 15.1207 10.3255V13.6628C15.1207 13.7148 15.1051 13.7667 15.0739 13.8187C15.0427 13.8707 15.0037 13.9123 14.9569 13.9435C14.9101 13.9747 14.8556 13.9903 14.7932 13.9903H13.4676C13.3741 13.9903 13.2961 13.9565 13.2337 13.8889C13.1713 13.8213 13.1402 13.7459 13.1402 13.6628V10.3255Z" fill="#777777"/>
<path fill-rule="evenodd" clip-rule="evenodd" d="M4.22472 1.86686C5.43308 1.18848 6.75284 0.849609 8.18119 0.849609C9.20759 0.849609 10.1876 1.02958 11.1202 1.3899C12.0511 1.74956 12.8676 2.24493 13.5682 2.8765C14.2684 3.50777 14.8484 4.26562 15.3084 5.14863C15.7693 6.03344 16.0579 6.98427 16.1743 8.00008C16.2374 8.57841 16.2688 9.22936 16.2688 9.95088C16.2688 10.001 16.2594 10.0511 16.2437 10.1003C16.2601 10.1774 16.2688 10.2524 16.2688 10.3251V13.6624C16.2688 13.951 16.1904 14.2163 16.0336 14.4544C15.8831 14.6829 15.6853 14.8564 15.442 14.9724L15.3974 15.017L15.3231 15.07L15.238 15.1126L10.0665 17.1335L9.15068 17.1496L9.14805 17.1496H7.63538C7.45898 17.1496 7.30428 17.0834 7.17844 16.9575C7.05259 16.8317 6.98636 16.677 6.98636 16.5006V16.0016C6.98636 15.818 7.05042 15.658 7.18134 15.534C7.30776 15.4142 7.46157 15.3525 7.63538 15.3525H9.13246C9.24915 15.3525 9.35938 15.3787 9.46035 15.4326C9.56459 15.4881 9.64587 15.5694 9.70146 15.6737C9.7337 15.7341 9.75602 15.7979 9.76874 15.8644L12.5209 14.7822C12.3941 14.6784 12.2872 14.5543 12.2007 14.4101C12.0622 14.1792 11.9922 13.9291 11.9922 13.6624V10.3251C11.9922 9.92201 12.135 9.57243 12.4171 9.28448C12.7009 8.99488 13.0545 8.84961 13.4677 8.84961H14.7933C14.8381 8.84961 14.8836 8.85175 14.9299 8.85595C14.9228 8.7281 14.9158 8.60757 14.9087 8.49435C14.8983 8.32829 14.8882 8.21391 14.8787 8.14753L14.8781 8.14298C14.6845 6.4111 13.9579 4.98192 12.6969 3.84799C11.4362 2.7144 9.93361 2.14766 8.18119 2.14766C6.97929 2.14766 5.87143 2.43255 4.85487 3.00183C3.83767 3.57146 3.01933 4.35662 2.39838 5.35929C1.77881 6.35975 1.4377 7.4747 1.37602 8.70705V8.74978L1.36761 8.83396L1.36593 8.85401C1.40195 8.85107 1.43849 8.84961 1.47554 8.84961H2.81667C3.0913 8.84961 3.34401 8.91574 3.57123 9.04974C3.7964 9.18254 3.97384 9.36272 4.10131 9.58868C4.22871 9.81453 4.2922 10.0609 4.2922 10.3251V13.678C4.2922 14.0811 4.14945 14.4307 3.86727 14.7186C3.58346 15.0082 3.22996 15.1535 2.81667 15.1535H1.47554C1.07143 15.1535 0.721516 15.0074 0.433798 14.7197C0.146079 14.432 0 14.0821 0 13.678V10.3126L0.00933926 10.2068L0.0254327 10.1134C0.0292914 10.0902 0.0311891 10.0673 0.0311891 10.0444V9.80476C0.0415923 9.53427 0.0573034 9.14427 0.0780975 8.63482L0.0781603 8.63328C0.152184 7.18453 0.559738 5.8628 1.30139 4.67085C2.0423 3.48011 3.01719 2.54477 4.22472 1.86686ZM8.18119 1.14961C6.80252 1.14961 5.53359 1.4761 4.37158 2.12846C3.20873 2.78128 2.2707 3.6809 1.55611 4.82934C0.842406 5.97637 0.449446 7.24827 0.377816 8.64782C0.357115 9.15503 0.341573 9.54353 0.331189 9.81341V10.0444C0.331189 10.084 0.327889 10.1234 0.321351 10.1627L0.306768 10.2502L0.3 10.3314V13.678C0.3 14.0016 0.41383 14.2755 0.64593 14.5076C0.878029 14.7397 1.1519 14.8535 1.47554 14.8535H2.81667C3.15192 14.8535 3.4274 14.7389 3.653 14.5087C3.88024 14.2768 3.9922 14.0026 3.9922 13.678V10.3251C3.9922 10.1111 3.94133 9.91568 3.84002 9.73608C3.73876 9.55658 3.59911 9.41447 3.41883 9.30815C3.24059 9.20303 3.04105 9.14961 2.81667 9.14961H1.47554C1.39313 9.14961 1.31705 9.15876 1.24681 9.17632L1.06043 9.22291V8.90134L1.06895 8.80534L1.07602 8.73482V8.69588C1.1396 7.41377 1.49517 6.24796 2.14333 5.20134C2.79075 4.15592 3.64622 3.33484 4.70829 2.74008C5.771 2.14496 6.92955 1.84766 8.18119 1.84766C10.0051 1.84766 11.5798 2.44011 12.8975 3.62491C14.2142 4.80889 14.9741 6.30555 15.176 8.10744C15.1872 8.18672 15.1978 8.31064 15.2081 8.47563C15.2185 8.64255 15.2289 8.82498 15.2394 9.02291L15.2495 9.21576L15.0602 9.17789C14.9646 9.15878 14.8758 9.14961 14.7933 9.14961H13.4677C13.1325 9.14961 12.857 9.26425 12.6314 9.49446C12.4042 9.72634 12.2922 10.0005 12.2922 10.3251V13.6624C12.2922 13.8739 12.347 14.0708 12.458 14.2558C12.5683 14.4397 12.7192 14.5817 12.9136 14.6835L13.2044 14.8358L9.48148 16.2997V16.0016C9.48148 15.9311 9.46607 15.8698 9.43675 15.8148C9.40917 15.7631 9.37089 15.7248 9.31918 15.6973C9.26421 15.6679 9.2029 15.6525 9.13246 15.6525H7.63538C7.53889 15.6525 7.45878 15.6844 7.38767 15.7518C7.32106 15.8149 7.28636 15.894 7.28636 16.0016V16.5006C7.28636 16.5945 7.31888 16.6737 7.39057 16.7454C7.46226 16.8171 7.54147 16.8496 7.63538 16.8496H9.14672L10.0074 16.8345L15.1222 14.8351L15.1679 14.8122L15.2028 14.7873L15.2678 14.7223L15.2926 14.711C15.4952 14.6189 15.658 14.4793 15.783 14.2894C15.9069 14.1013 15.9688 13.8935 15.9688 13.6624V10.3251C15.9688 10.2666 15.9604 10.2009 15.9421 10.1276L15.9303 10.0806L15.9484 10.0355C15.9644 9.99549 15.9688 9.96802 15.9688 9.95088C15.9688 9.23785 15.9378 8.59898 15.8762 8.0338C15.7638 7.05366 15.4858 6.13849 15.0423 5.28724C14.5978 4.43405 14.0394 3.70523 13.3673 3.09932C12.6956 2.49373 11.911 2.01704 11.0121 1.66974C10.115 1.32312 9.17168 1.14961 8.18119 1.14961ZM15.176 8.10744C15.1761 8.10818 15.1762 8.10892 15.1763 8.10965L15.0272 8.12632L15.1757 8.1051C15.1758 8.10588 15.1759 8.10666 15.176 8.10744ZM1.47554 10.1477C1.45313 10.1477 1.42935 10.1518 1.40345 10.1615C1.38177 10.1696 1.36362 10.1814 1.34768 10.1973C1.33174 10.2132 1.32002 10.2314 1.31189 10.2531C1.30218 10.279 1.29805 10.3027 1.29805 10.3251V13.678C1.29805 13.7193 1.31211 13.7593 1.35184 13.8024C1.38526 13.8386 1.423 13.8555 1.47554 13.8555H2.81667C2.8692 13.8555 2.90694 13.8386 2.94036 13.8024C2.9801 13.7593 2.99415 13.7193 2.99415 13.678V10.3251C2.99415 10.3027 2.99002 10.279 2.98031 10.2531C2.97218 10.2314 2.96046 10.2132 2.94452 10.1973C2.92529 10.1781 2.90709 10.1662 2.89013 10.1589C2.87728 10.1534 2.85439 10.1477 2.81667 10.1477H1.47554ZM1.29811 9.8806C1.35538 9.85912 1.41477 9.84766 1.47554 9.84766H2.81667C2.88291 9.84766 2.94839 9.8575 3.00831 9.88318C3.06413 9.9071 3.11351 9.94202 3.15665 9.98516C3.20309 10.0316 3.23815 10.0862 3.26121 10.1477C3.28269 10.205 3.29415 10.2644 3.29415 10.3251V13.678C3.29415 13.803 3.24583 13.9137 3.16081 14.0058C3.06947 14.1048 2.95127 14.1555 2.81667 14.1555H1.47554C1.34093 14.1555 1.22273 14.1048 1.1314 14.0058C1.04637 13.9137 0.998051 13.803 0.998051 13.678V10.3251C0.998051 10.2644 1.00952 10.205 1.03099 10.1477C1.05405 10.0862 1.08911 10.0316 1.13555 9.98516C1.18199 9.93872 1.23662 9.90366 1.29811 9.8806ZM13.4677 10.1477C13.4382 10.1477 13.4185 10.1514 13.406 10.1556C13.3918 10.1603 13.3789 10.1673 13.3665 10.1772C13.3492 10.191 13.3336 10.2066 13.3198 10.2239C13.313 10.2324 13.3058 10.2451 13.3001 10.265C13.2927 10.2907 13.2903 10.3105 13.2903 10.3251V13.6624C13.2903 13.7037 13.3043 13.7437 13.344 13.7868C13.3775 13.823 13.4152 13.8399 13.4677 13.8399H14.7933C14.8294 13.8399 14.8543 13.8313 14.8738 13.8183C14.9007 13.8003 14.9247 13.7756 14.9454 13.7411C14.9649 13.7086 14.9708 13.6829 14.9708 13.6624V10.3251C14.9708 10.289 14.9622 10.2641 14.9492 10.2446C14.929 10.2143 14.9041 10.1895 14.8738 10.1693C14.8543 10.1563 14.8294 10.1477 14.7933 10.1477H13.4677ZM13.3111 9.87095C13.3611 9.85431 13.4141 9.84766 13.4677 9.84766H14.7933C14.8819 9.84766 14.9661 9.87025 15.0402 9.91964C15.1035 9.96181 15.1566 10.0149 15.1988 10.0782C15.2482 10.1523 15.2708 10.2365 15.2708 10.3251V13.6624C15.2708 13.7458 15.2454 13.8241 15.2026 13.8955C15.1609 13.965 15.1069 14.0234 15.0402 14.0679C14.9661 14.1173 14.8819 14.1399 14.7933 14.1399H13.4677C13.3331 14.1399 13.2149 14.0892 13.1236 13.9902C13.0386 13.8981 12.9903 13.7874 12.9903 13.6624V10.3251C12.9903 10.2774 12.9982 10.2296 13.0116 10.1826C13.0267 10.1297 13.0507 10.08 13.0855 10.0365C13.1132 10.0019 13.1445 9.97062 13.1791 9.94291C13.2187 9.9112 13.263 9.88701 13.3111 9.87095Z" fill="#777777"/>
</svg>
