<svg width="70" height="20" viewBox="0 0 70 20" fill="none" xmlns="http://www.w3.org/2000/svg">
<path d="M0 0H70L65.7018 20H0V0Z" fill="#5DAD3A"/>
<path d="M21.0743 3.29875V4.24062H19.818V8.125H18.663V4.24062H17.4067V3.29875H21.0743Z" fill="white"/>
<path d="M25.7606 3.29875V8.125H24.6056V6.13812H22.809V8.125H21.654V3.29875H22.809V5.18937H24.6056V3.29875H25.7606Z" fill="white"/>
<path d="M29.5461 7.2725H27.7764L27.4927 8.125H26.2837L27.9993 3.29875H29.3367L31.0523 8.125H29.8298L29.5461 7.2725ZM29.2489 6.365L28.6613 4.59812L28.0804 6.365H29.2489Z" fill="white"/>
<path d="M35.8162 8.125H34.6612L32.7295 5.14812V8.125H31.5745V3.29875H32.7295L34.6612 6.28937V3.29875H35.8162V8.125Z" fill="white"/>
<path d="M40.7601 3.29875V8.125H39.6051V6.13812H37.8084V8.125H36.6534V3.29875H37.8084V5.18937H39.6051V3.29875H40.7601Z" fill="white"/>
<path d="M46.4362 3.29875V4.24062H45.1799V8.125H44.0249V4.24062H42.7686V3.29875H46.4362Z" fill="white"/>
<path d="M49.2583 8.17312C48.8125 8.17312 48.4028 8.06771 48.029 7.85687C47.6598 7.64604 47.3649 7.35271 47.1442 6.97688C46.9281 6.59646 46.82 6.17021 46.82 5.69812C46.82 5.22604 46.9281 4.80208 47.1442 4.42625C47.3649 4.05042 47.6598 3.75708 48.029 3.54625C48.4028 3.33542 48.8125 3.23 49.2583 3.23C49.7041 3.23 50.1116 3.33542 50.4809 3.54625C50.8546 3.75708 51.1473 4.05042 51.3589 4.42625C51.5751 4.80208 51.6832 5.22604 51.6832 5.69812C51.6832 6.17021 51.5751 6.59646 51.3589 6.97688C51.1428 7.35271 50.8501 7.64604 50.4809 7.85687C50.1116 8.06771 49.7041 8.17312 49.2583 8.17312ZM49.2583 7.10063C49.6366 7.10063 49.9383 6.97229 50.1634 6.71562C50.3931 6.45896 50.5079 6.11979 50.5079 5.69812C50.5079 5.27187 50.3931 4.93271 50.1634 4.68062C49.9383 4.42396 49.6366 4.29562 49.2583 4.29562C48.8756 4.29562 48.5694 4.42167 48.3397 4.67375C48.1146 4.92583 48.002 5.26729 48.002 5.69812C48.002 6.12437 48.1146 6.46583 48.3397 6.7225C48.5694 6.97458 48.8756 7.10063 49.2583 7.10063Z" fill="white"/>
<path d="M55.2774 7.2725H53.5077L53.2241 8.125H52.015L53.7306 3.29875H55.068L56.7836 8.125H55.5611L55.2774 7.2725ZM54.9802 6.365L54.3926 4.59812L53.8117 6.365H54.9802ZM55.1828 2.32937L53.555 3.02375V2.2125L55.1828 1.415V2.32937Z" fill="white"/>
<path d="M61.5475 8.125H60.3925L58.4608 5.14812V8.125H57.3058V3.29875H58.4608L60.3925 6.28937V3.29875H61.5475V8.125Z" fill="white"/>
<path d="M26.0003 11.4237C26.5001 11.4237 26.9369 11.5246 27.3107 11.7262C27.6889 11.9279 27.9794 12.2121 28.182 12.5787C28.3846 12.9408 28.4859 13.3602 28.4859 13.8369C28.4859 14.309 28.3846 14.7283 28.182 15.095C27.9794 15.4617 27.6889 15.7458 27.3107 15.9475C26.9369 16.1492 26.5001 16.25 26.0003 16.25H24.2239V14.325H23.7984V13.3488H24.2239V11.4237H26.0003ZM25.9328 15.2462C26.3651 15.2462 26.7028 15.1225 26.9459 14.875C27.1891 14.6275 27.3107 14.2815 27.3107 13.8369C27.3107 13.3923 27.1891 13.0462 26.9459 12.7987C26.7028 12.5512 26.3651 12.4275 25.9328 12.4275H25.3857V13.3488H26.4123V14.325H25.3857V15.2462H25.9328Z" fill="white"/>
<path d="M32.278 16.25L31.9268 15.0812H30.1706L29.8194 16.25H28.7184L30.4205 11.3206H31.6701L33.379 16.25H32.278ZM31.3324 13.0669C31.3099 12.989 31.2806 12.8904 31.2446 12.7712C31.2085 12.6521 31.1725 12.5306 31.1365 12.4069C31.1005 12.2831 31.0712 12.1754 31.0487 12.0837C31.0262 12.1754 30.9947 12.29 30.9541 12.4275C30.9181 12.5604 30.8821 12.6888 30.8461 12.8125C30.8145 12.9317 30.7898 13.0165 30.7718 13.0669L30.4273 14.2081H31.6836L31.3324 13.0669ZM31.866 10.1038C31.866 10.2733 31.8209 10.4154 31.7309 10.53C31.6408 10.64 31.508 10.7179 31.3324 10.7638L31.2986 11.0044H30.7245L30.6502 10.5094C30.8168 10.4819 30.9294 10.4406 30.9879 10.3856C31.0464 10.326 31.0757 10.255 31.0757 10.1725C31.0757 10.0992 31.0532 10.0442 31.0082 10.0075C30.9631 9.97083 30.9023 9.9525 30.8258 9.9525C30.7402 9.9525 30.6592 9.95937 30.5826 9.97312C30.5106 9.98687 30.4386 10.0052 30.3665 10.0281V9.46437C30.4295 9.44146 30.5151 9.42312 30.6232 9.40937C30.7312 9.39563 30.8393 9.38875 30.9474 9.38875C31.2536 9.38875 31.4832 9.45062 31.6363 9.57437C31.7894 9.69812 31.866 9.87458 31.866 10.1038Z" fill="white"/>
<path d="M39.1704 11.4237V16.25H38.0154V13.3556L36.9549 16.25H36.0228L34.9556 13.3488V16.25H33.8006V11.4237H35.165L36.4956 14.765L37.8127 11.4237H39.1704Z" fill="white"/>
<path d="M44.3029 13.775C44.5776 13.8346 44.7982 13.9744 44.9648 14.1944C45.1314 14.4098 45.2148 14.6573 45.2148 14.9369C45.2148 15.3402 45.0752 15.661 44.796 15.8994C44.5213 16.1331 44.1363 16.25 43.641 16.25H41.4323V11.4237H43.5667C44.0485 11.4237 44.4245 11.536 44.6947 11.7606C44.9693 11.9852 45.1067 12.29 45.1067 12.675C45.1067 12.9592 45.0324 13.1952 44.8838 13.3831C44.7397 13.571 44.5461 13.7017 44.3029 13.775ZM42.5873 13.3763H43.3438C43.5329 13.3763 43.677 13.335 43.7761 13.2525C43.8796 13.1654 43.9314 13.0394 43.9314 12.8744C43.9314 12.7094 43.8796 12.5833 43.7761 12.4963C43.677 12.4092 43.5329 12.3656 43.3438 12.3656H42.5873V13.3763ZM43.4383 15.3013C43.632 15.3013 43.7806 15.2577 43.8841 15.1706C43.9922 15.079 44.0462 14.9483 44.0462 14.7787C44.0462 14.6092 43.99 14.4762 43.8774 14.38C43.7693 14.2837 43.6185 14.2356 43.4248 14.2356H42.5873V15.3013H43.4383Z" fill="white"/>
<path d="M49.0254 16.25L48.6742 15.0812H46.9181L46.5668 16.25H45.4659L47.168 11.3206H48.4175L50.1264 16.25H49.0254ZM48.0798 13.0669C48.0573 12.989 48.028 12.8904 47.992 12.7712C47.956 12.6521 47.92 12.5306 47.884 12.4069C47.8479 12.2831 47.8187 12.1754 47.7961 12.0837C47.7736 12.1754 47.7421 12.29 47.7016 12.4275C47.6656 12.5604 47.6295 12.6888 47.5935 12.8125C47.562 12.9317 47.5372 13.0165 47.5192 13.0669L47.1747 14.2081H48.4311L48.0798 13.0669ZM48.6134 10.1038C48.6134 10.2733 48.5684 10.4154 48.4783 10.53C48.3883 10.64 48.2554 10.7179 48.0798 10.7638L48.0461 11.0044H47.4719L47.3976 10.5094C47.5642 10.4819 47.6768 10.4406 47.7354 10.3856C47.7939 10.326 47.8232 10.255 47.8232 10.1725C47.8232 10.0992 47.8006 10.0442 47.7556 10.0075C47.7106 9.97083 47.6498 9.9525 47.5732 9.9525C47.4877 9.9525 47.4066 9.95937 47.3301 9.97312C47.258 9.98687 47.186 10.0052 47.1139 10.0281V9.46437C47.177 9.44146 47.2625 9.42312 47.3706 9.40937C47.4787 9.39563 47.5868 9.38875 47.6948 9.38875C48.001 9.38875 48.2307 9.45062 48.3838 9.57437C48.5369 9.69812 48.6134 9.87458 48.6134 10.1038Z" fill="white"/>
<path d="M52.7905 16.2981C52.3447 16.2981 51.935 16.1927 51.5612 15.9819C51.192 15.771 50.8971 15.4777 50.6764 15.1019C50.4603 14.7215 50.3522 14.2952 50.3522 13.8231C50.3522 13.351 50.4603 12.9271 50.6764 12.5512C50.8971 12.1754 51.192 11.8821 51.5612 11.6712C51.935 11.4604 52.3447 11.355 52.7905 11.355C53.2363 11.355 53.6438 11.4604 54.0131 11.6712C54.3868 11.8821 54.6795 12.1754 54.8911 12.5512C55.1073 12.9271 55.2154 13.351 55.2154 13.8231C55.2154 14.2952 55.1073 14.7215 54.8911 15.1019C54.675 15.4777 54.3823 15.771 54.0131 15.9819C53.6438 16.1927 53.2363 16.2981 52.7905 16.2981ZM52.7905 15.2256C53.1688 15.2256 53.4705 15.0973 53.6956 14.8406C53.9253 14.584 54.0401 14.2448 54.0401 13.8231C54.0401 13.3969 53.9253 13.0577 53.6956 12.8056C53.4705 12.549 53.1688 12.4206 52.7905 12.4206C52.4078 12.4206 52.1016 12.5467 51.8719 12.7987C51.6468 13.0508 51.5342 13.3923 51.5342 13.8231C51.5342 14.2494 51.6468 14.5908 51.8719 14.8475C52.1016 15.0996 52.4078 15.2256 52.7905 15.2256Z" fill="white"/>
<path d="M5.94781 6.18069L9.57761 4.55531C9.73517 4.48475 9.9146 4.48476 10.0722 4.55532L13.7016 6.18069C14.2419 6.35369 14.6004 6.78796 14.6004 7.27206C14.6005 10.2557 13.895 13.4178 11.2734 14.7525C10.8719 14.957 10.4245 15.1694 9.92167 15.4003C9.861 15.4282 9.78922 15.4271 9.72937 15.3974C9.24015 15.1548 8.80291 14.9332 8.40968 14.7237C5.81259 13.3402 5.04913 10.2557 5.049 7.27206C5.049 6.78796 5.40664 6.35369 5.94781 6.18069Z" fill="white"/>
<path d="M11.6483 10.7365C11.6483 11.5513 11.1049 12.0468 10.2986 12.1489V12.4762C10.2986 12.7192 10.1053 12.9163 9.86627 12.9163C9.6273 12.9163 9.43365 12.7189 9.43365 12.4762V12.1125C9.02372 12.0339 8.62457 11.8714 8.27263 11.615C8.16201 11.536 8.0844 11.3903 8.0844 11.2318C8.0844 10.9677 8.2918 10.7632 8.5516 10.7632C8.68139 10.7632 8.77186 10.8089 8.83688 10.8553C9.18156 11.1128 9.55757 11.2713 9.99907 11.2713C10.4081 11.2713 10.655 11.1064 10.655 10.8353V10.822C10.655 10.5647 10.4993 10.4328 9.73949 10.2341C8.82471 9.99653 8.23359 9.73853 8.23359 8.8198V8.80646C8.23359 8.09122 8.7174 7.58593 9.43387 7.45147V7.10681C9.43387 6.86357 9.6275 6.66626 9.86649 6.66626C10.1055 6.66626 10.2989 6.86335 10.2989 7.10681V7.45457C10.6553 7.51408 10.9794 7.63687 11.2653 7.8223C11.3762 7.88752 11.4866 8.02701 11.4866 8.22529C11.4866 8.48926 11.2787 8.69443 11.0191 8.69443C10.9214 8.69443 10.844 8.66799 10.7663 8.62136C10.4348 8.42359 10.1233 8.31077 9.81109 8.31077C9.42829 8.31077 9.22722 8.48928 9.22722 8.71374V8.72729C9.22722 9.031 9.42178 9.13028 10.2075 9.33519C11.1288 9.57963 11.6486 9.91689 11.6486 10.7226L11.6483 10.7365Z" fill="#5DAD3A"/>
</svg>
