<svg width="19" height="16" viewBox="0 0 19 16" fill="none" xmlns="http://www.w3.org/2000/svg">
<path d="M8.4241 12.2449C8.4241 12.5047 8.5272 12.7539 8.71071 12.9376C8.89422 13.1213 9.14312 13.2245 9.40265 13.2245C9.66217 13.2245 9.91107 13.1213 10.0946 12.9376C10.2781 12.7539 10.3812 12.5047 10.3812 12.2449C10.3812 11.9851 10.2781 11.7359 10.0946 11.5522C9.91107 11.3685 9.66217 11.2653 9.40265 11.2653C9.14312 11.2653 8.89422 11.3685 8.71071 11.5522C8.5272 11.7359 8.4241 11.9851 8.4241 12.2449ZM8.75028 6.04082V9.79592C8.75028 9.88572 8.82367 9.95918 8.91337 9.95918H9.89192C9.98162 9.95918 10.055 9.88572 10.055 9.79592V6.04082C10.055 5.95102 9.98162 5.87755 9.89192 5.87755H8.91337C8.82367 5.87755 8.75028 5.95102 8.75028 6.04082ZM18.4481 15.0204L9.96735 0.326531C9.84095 0.108163 9.62282 0 9.40265 0C9.18247 0 8.9623 0.108163 8.83794 0.326531L0.357221 15.0204C0.106469 15.4571 0.420419 16 0.921923 16H17.8834C18.3849 16 18.6988 15.4571 18.4481 15.0204ZM2.47536 14.451L9.40265 2.44694L16.3299 14.451H2.47536Z" fill="#777777"/>
</svg>
